<?xml version="1.0" standalone="no"?>
<!DOCTYPE svg PUBLIC "-//W3C//DTD SVG 20010904//EN"
 "http://www.w3.org/TR/2001/REC-SVG-20010904/DTD/svg10.dtd">
<svg version="1.0" xmlns="http://www.w3.org/2000/svg"
 width="234.000000pt" height="234.000000pt" viewBox="0 0 234.000000 234.000000"
 preserveAspectRatio="xMidYMid meet">
<metadata>
Created by potrace 1.14, written by Peter Selinger 2001-2017
</metadata>
<g transform="translate(0.000000,234.000000) scale(0.100000,-0.100000)"
fill="#000000" stroke="none">
<path d="M1430 2169 c-82 -14 -105 -21 -160 -46 -100 -47 -270 -193 -270 -231
0 -11 11 -31 25 -46 20 -22 31 -25 62 -21 61 7 128 21 140 28 6 4 49 8 95 9
74 1 91 5 160 40 43 21 81 38 85 38 5 1 19 10 32 20 22 19 23 25 19 102 -4 69
-8 84 -27 100 -25 19 -78 22 -161 7z"/>
<path d="M480 1700 c-134 -114 -240 -221 -247 -250 -3 -14 -12 -32 -19 -40
-13 -16 -20 -102 -30 -360 -6 -154 -6 -153 53 -347 13 -45 30 -84 36 -86 7 -3
46 -67 87 -142 41 -75 82 -144 91 -154 9 -9 19 -28 22 -42 6 -24 92 -100 145
-128 15 -8 72 -11 168 -10 120 1 161 5 225 24 44 12 79 21 79 19 0 -2 16 7 35
21 20 13 49 26 65 30 17 4 30 10 30 14 0 9 82 31 116 31 14 0 34 5 46 11 11 6
73 11 139 12 108 1 120 -1 141 -20 21 -20 34 -22 152 -22 113 -1 134 2 166 20
32 18 70 71 70 98 0 5 15 32 34 60 47 70 59 131 54 286 -2 98 -7 137 -20 160
-9 17 -29 59 -44 95 -16 36 -51 99 -79 140 -49 72 -59 92 -84 171 -27 85 -5
181 55 244 66 69 61 80 -46 118 -139 50 -181 58 -339 64 -148 5 -200 0 -253
-28 -10 -5 -29 -9 -43 -9 -14 0 -37 -7 -50 -16 -31 -20 -55 -12 -55 20 0 29
-16 36 -88 36 -34 0 -85 10 -125 25 -58 20 -95 25 -230 29 l-162 6 -95 -80z"/>
</g>
</svg>
